<svg stroke="currentColor" fill="currentColor" stroke-width="0" viewBox="0 0 640 512" height="1em" width="1em" xmlns="http://www.w3.org/2000/svg"><path d="M524.5 69.8A1.5 1.5 0 0 0 523 69c-38.1-17.5-78.4-30-120.2-37.1a1.8 1.8 0 0 0-1.9.9c-5.3 9.5-11.2 21.9-15.3 31.6-45.4-6.8-90.5-6.8-135.1 0-4.1-9.9-10.2-22.1-15.5-31.6a1.8 1.8 0 0 0-1.9-.9c-41.8 7.1-82.1 19.6-120.2 37.1a1.5 1.5 0 0 0-.8.7C35.4 184.6 14.2 296.5 24.5 407a1.8 1.8 0 0 0 .7 1.2c51.1 37.5 100.7 60.3 149.4 75.4a1.8 1.8 0 0 0 2.1-.7c11.5-15.7 21.8-32.3 30.6-49.8a1.8 1.8 0 0 0-1-2.5c-16.3-6.2-31.8-13.7-46.8-22.2a1.8 1.8 0 0 1-.2-3c3.1-2.3 6.2-4.7 9.1-7.1a1.7 1.7 0 0 1 1.8-.2c97.7 44.6 203.5 44.6 300.1 0a1.7 1.7 0 0 1 1.8.2c3 2.4 6 4.8 9.2 7.1a1.8 1.8 0 0 1-.2 3c-14.9 8.7-30.6 16-46.9 22.2a1.8 1.8 0 0 0-1 2.5c9 17.4 19.2 34.1 30.6 49.8a1.8 1.8 0 0 0 2.1.7c48.9-15.1 98.5-37.9 149.6-75.4a1.8 1.8 0 0 0 .7-1.2C628.5 279.2 595.9 168.3 524.5 69.8zM222.5 337.6c-29.5 0-53.7-27.1-53.7-60.5s23.7-60.5 53.7-60.5c30.2 0 54.2 27.3 53.7 60.5 0 33.4-23.7 60.5-53.7 60.5zm195 0c-29.5 0-53.7-27.1-53.7-60.5s23.7-60.5 53.7-60.5c30.2 0 54.2 27.3 53.7 60.5 0 33.4-23.5 60.5-53.7 60.5z"></path></svg>
